<?xml version="1.0" standalone="no"?>
<!DOCTYPE svg PUBLIC "-//W3C//DTD SVG 20010904//EN"
 "http://www.w3.org/TR/2001/REC-SVG-20010904/DTD/svg10.dtd">
<svg version="1.0" xmlns="http://www.w3.org/2000/svg"
 width="900.000000pt" height="900.000000pt" viewBox="0 0 900.000000 900.000000"
 preserveAspectRatio="xMidYMid meet">
<metadata>
Created by potrace 1.10, written by Peter Selinger 2001-2011
</metadata>
<g transform="translate(0.000000,900.000000) scale(0.100000,-0.100000)"
fill="currentColor" stroke="none">
<path d="M7195 8575 c-72 -18 -112 -38 -177 -87 -73 -56 -124 -124 -160 -211
-25 -61 -28 -82 -28 -176 0 -120 14 -175 66 -256 66 -102 172 -189 256 -209
56 -13 52 -33 -33 -160 -43 -65 -79 -120 -79 -122 0 -2 -20 -33 -45 -70 -25
-36 -45 -67 -45 -69 0 -2 -19 -32 -42 -67 -88 -132 -108 -189 -108 -313 0
-178 78 -317 235 -418 112 -73 101 -72 680 -72 l520 0 65 28 c177 76 279 199
315 382 15 74 15 87 0 160 -23 110 -67 195 -139 267 -62 61 -158 116 -226 127
-21 4 -36 13 -38 23 -2 9 17 46 42 83 25 36 46 68 46 70 0 2 20 33 45 69 25
37 45 68 45 70 0 3 19 33 43 68 142 209 167 271 167 407 0 179 -91 335 -250
429 -97 58 -140 62 -645 61 -338 -1 -473 -5 -510 -14z m987 -262 c62 -24 84
-42 120 -97 29 -45 32 -57 32 -122 -1 -63 -4 -77 -32 -118 -18 -26 -32 -49
-32 -51 0 -3 -20 -34 -44 -69 -24 -35 -45 -68 -47 -72 -2 -5 -43 -67 -90 -139
-137 -207 -204 -309 -209 -320 -3 -5 -17 -29 -32 -52 -43 -66 -34 -126 26
-182 24 -23 36 -25 174 -31 81 -4 161 -12 177 -19 73 -30 135 -127 135 -208
-1 -103 -92 -206 -192 -218 -29 -3 -256 -5 -505 -3 l-451 3 -44 30 c-23 17
-56 50 -72 74 -26 39 -29 53 -29 116 0 66 3 76 39 134 21 34 44 69 49 79 6 9
49 76 96 147 162 245 204 310 209 320 3 6 23 37 45 70 83 126 92 161 54 222
-29 47 -66 59 -201 66 -108 5 -121 8 -160 34 -124 83 -145 247 -45 346 76 75
77 75 559 76 378 1 433 -1 470 -16z"/>
<path d="M4934 7651 c-71 -21 -123 -53 -180 -108 -66 -64 -114 -178 -114 -268
0 -52 25 -145 52 -196 30 -58 128 -149 176 -163 13 -5 22 -15 22 -28 0 -11
-47 -90 -104 -176 -125 -190 -140 -219 -155 -303 -31 -167 58 -340 216 -420
l68 -34 415 0 c396 0 417 1 455 20 75 38 124 77 162 129 66 88 78 126 78 246
-1 99 -3 108 -34 167 -43 79 -109 145 -183 180 -32 15 -58 32 -58 37 0 6 20
39 43 75 176 266 182 274 208 350 52 147 -17 340 -154 434 -104 71 -146 77
-522 76 -286 0 -338 -3 -391 -18z m746 -266 c44 -23 70 -66 70 -117 0 -37 -10
-59 -74 -155 -41 -62 -76 -116 -77 -120 -5 -11 -134 -208 -170 -260 -46 -65
-62 -119 -48 -162 26 -77 75 -101 207 -101 86 0 103 -3 126 -21 57 -45 68
-128 25 -183 -42 -53 -64 -56 -414 -56 -358 0 -379 3 -415 63 -35 57 -27 104
35 197 30 45 55 84 55 86 0 1 20 32 45 68 25 37 45 68 45 71 0 2 24 39 53 82
140 205 148 233 94 305 -36 47 -63 56 -170 57 -102 1 -157 48 -157 134 0 46 4
54 40 89 l41 38 330 0 c272 0 335 -3 359 -15z"/>
<path d="M6310 5934 c-45 -8 -149 -68 -189 -109 -21 -22 -54 -67 -72 -100 -32
-58 -33 -63 -33 -175 0 -106 2 -119 28 -169 36 -70 107 -145 168 -178 26 -14
48 -31 48 -37 0 -6 -27 -51 -60 -99 -33 -49 -60 -90 -60 -93 0 -2 -20 -32 -44
-68 -76 -111 -100 -171 -104 -263 -10 -201 111 -358 313 -408 46 -12 130 -15
384 -15 344 0 404 6 494 52 120 60 217 219 217 354 0 42 -28 138 -55 191 -19
38 -105 124 -143 144 -15 8 -41 22 -59 32 l-32 19 23 36 c13 20 62 96 108 168
120 182 133 216 133 335 0 108 -14 149 -77 236 -39 54 -62 73 -143 119 l-50
29 -385 1 c-212 1 -396 0 -410 -2z m730 -269 c65 -33 93 -105 65 -165 -21 -46
-28 -57 -109 -180 -183 -277 -234 -357 -245 -377 -16 -32 -13 -95 6 -123 37
-54 52 -59 156 -60 108 0 157 -17 196 -66 42 -53 20 -142 -45 -185 -27 -18
-53 -19 -376 -19 l-348 0 -39 35 c-42 38 -53 75 -41 130 4 17 54 103 112 191
269 409 266 404 254 465 -15 76 -71 109 -186 109 -67 0 -87 4 -111 21 -31 22
-59 76 -59 113 0 32 36 84 72 106 31 19 51 20 351 20 261 0 323 -3 347 -15z"/>
<path d="M2445 5670 c-141 -17 -191 -26 -342 -62 -99 -23 -311 -92 -361 -117
-9 -4 -48 -23 -87 -41 -38 -17 -77 -36 -86 -40 -44 -22 -117 -64 -144 -81 -16
-10 -37 -22 -45 -26 -22 -11 -138 -91 -202 -139 -31 -24 -60 -44 -65 -43 -4 0
-32 32 -62 70 -192 247 -539 302 -801 126 -112 -76 -203 -204 -239 -337 -14
-52 -10 -275 6 -330 21 -74 70 -156 137 -227 63 -68 159 -136 202 -145 10 -2
20 -11 22 -21 2 -10 -30 -87 -72 -172 -42 -85 -76 -158 -76 -163 0 -5 -12 -36
-26 -68 -15 -33 -30 -72 -35 -89 -4 -16 -19 -64 -33 -105 -58 -176 -106 -402
-126 -600 -13 -125 -8 -620 8 -745 19 -156 65 -349 128 -540 64 -194 58 -180
178 -378 39 -65 76 -125 81 -135 6 -9 29 -45 53 -80 23 -35 42 -65 42 -68 0
-8 113 -169 161 -229 73 -92 203 -211 294 -270 117 -76 276 -147 405 -181 160
-42 216 -44 1781 -44 1636 0 1544 -3 1587 57 44 63 39 115 -15 168 l-36 35
-434 0 c-496 0 -457 -9 -430 96 21 78 21 145 1 215 -45 158 -148 272 -297 329
-41 16 -86 21 -207 26 -85 3 -171 10 -190 15 -60 18 -81 60 -96 197 -28 249
-93 411 -245 613 -150 198 -403 364 -663 435 -184 50 -245 57 -481 56 -192 0
-245 -3 -321 -20 -98 -21 -149 -36 -202 -58 -18 -8 -37 -14 -43 -14 -36 0
-270 -134 -364 -208 -89 -70 -265 -270 -265 -300 0 -5 -6 -15 -14 -22 -8 -6
-16 -21 -18 -33 -4 -31 -40 -29 -50 3 -30 106 -50 201 -78 365 -7 39 -15 189
-17 334 -5 271 3 378 43 581 26 127 67 283 90 338 8 18 14 39 14 47 0 8 6 29
14 47 8 18 38 89 66 157 29 68 61 140 72 159 11 20 32 59 46 86 14 28 56 98
92 156 280 448 684 801 1126 985 49 21 103 43 119 50 30 13 83 30 185 58 407
114 922 102 1325 -31 71 -23 153 -22 187 3 55 40 63 145 14 193 -30 31 -123
65 -246 92 -19 4 -55 12 -80 18 -280 68 -603 87 -885 52z m-1738 -537 c85 -39
183 -140 183 -190 0 -16 -34 -63 -108 -146 -59 -67 -136 -161 -172 -209 -40
-55 -71 -88 -82 -88 -10 0 -47 13 -81 28 -70 32 -136 98 -167 170 -29 64 -28
192 1 258 27 60 111 145 170 172 59 27 201 30 256 5z m1050 -2763 c369 -30
639 -164 827 -409 50 -65 135 -223 136 -252 0 -9 6 -32 14 -50 7 -19 21 -99
31 -179 14 -119 23 -156 48 -208 47 -96 146 -178 247 -204 19 -5 112 -12 205
-16 168 -8 172 -8 209 -37 61 -46 86 -94 86 -163 0 -49 -5 -66 -29 -98 -40
-55 -59 -70 -116 -89 -46 -14 -138 -15 -945 -12 -748 4 -906 7 -965 19 -74 16
-179 46 -205 58 -186 88 -258 137 -366 247 -84 85 -244 312 -304 431 -53 105
-62 248 -22 367 22 66 69 146 129 220 49 60 171 169 208 186 11 5 34 18 50 28
17 11 50 29 75 41 25 12 53 26 62 31 69 36 241 78 368 88 58 4 111 9 117 10 7
0 70 -4 140 -9z"/>
<path d="M4013 5276 c-39 -33 -57 -92 -42 -137 17 -48 22 -53 118 -116 415
-271 668 -606 836 -1108 24 -73 32 -93 60 -162 16 -38 16 -45 3 -65 -25 -38
-70 -159 -85 -228 -8 -36 -15 -108 -15 -160 0 -173 50 -323 159 -474 37 -50
43 -65 43 -108 0 -27 -5 -58 -11 -69 -16 -31 -39 -125 -55 -224 -18 -116 -18
-254 1 -385 14 -100 23 -139 60 -254 9 -30 12 -53 6 -59 -5 -5 -135 -8 -288
-7 -305 1 -362 -6 -405 -47 -54 -52 -44 -156 20 -200 26 -17 90 -18 1212 -23
818 -4 1197 -9 1222 -17 96 -28 195 -113 243 -209 26 -52 30 -71 33 -165 4
-103 3 -109 -28 -170 -51 -105 -134 -177 -246 -216 -44 -15 -133 -18 -900 -23
-834 -5 -852 -5 -874 -25 -53 -48 -64 -112 -27 -166 49 -73 -11 -69 982 -69
1026 1 1092 5 1350 80 39 12 84 25 100 30 97 28 246 97 365 168 216 130 411
320 552 537 76 118 177 321 198 400 5 17 19 62 33 100 28 83 46 152 58 220 13
73 26 99 59 114 78 34 198 179 215 259 4 18 13 32 21 32 11 0 14 22 14 116 0
70 -4 113 -9 109 -11 -6 -31 25 -31 49 0 29 -73 137 -123 182 -28 25 -80 60
-116 77 -59 28 -77 32 -174 35 -85 3 -119 0 -160 -14 -77 -27 -150 -78 -216
-151 l-59 -65 -38 12 c-131 42 -156 57 -179 114 -8 19 -15 56 -15 81 0 83 -44
234 -106 360 -164 336 -536 516 -1019 492 -66 -4 -176 -9 -245 -13 l-125 -7
-85 93 c-147 161 -246 221 -455 280 -22 6 -80 13 -130 16 -149 10 -298 -30
-457 -122 -50 -29 -78 -27 -78 5 0 11 -6 35 -14 53 -8 18 -22 53 -31 78 -28
71 -71 170 -119 270 -158 333 -454 656 -802 878 -57 36 -74 42 -119 42 -42 0
-60 -5 -82 -24z m1809 -1462 c98 -36 126 -50 180 -91 32 -24 77 -70 102 -102
59 -76 101 -113 172 -147 75 -36 174 -42 332 -20 267 38 553 -2 707 -97 182
-113 264 -257 311 -547 19 -120 46 -181 110 -250 39 -42 153 -109 186 -110 16
-1 108 -32 125 -43 7 -4 20 -33 29 -65 22 -77 41 -117 88 -180 54 -73 152
-140 244 -167 21 -6 23 -11 17 -48 -11 -73 -61 -234 -104 -334 -38 -88 -108
-222 -127 -244 -8 -8 -14 -19 -14 -23 0 -16 -129 -176 -194 -239 -74 -74 -191
-165 -271 -213 -100 -60 -316 -154 -354 -154 -29 0 -31 11 -11 60 69 171 69
329 2 495 -69 168 -217 314 -383 376 -106 40 -140 41 -863 48 l-710 6 -32 75
c-45 107 -60 160 -80 285 -25 164 -11 302 51 500 47 150 26 259 -76 400 -94
131 -132 300 -95 431 34 120 67 178 149 262 60 62 111 94 199 127 79 30 242
34 310 9z m2806 -1199 c16 -10 43 -38 60 -64 27 -39 32 -56 32 -104 0 -93 -35
-148 -120 -186 -56 -26 -86 -26 -141 -2 -147 65 -174 242 -52 339 21 16 50 32
63 35 43 9 128 -1 158 -18z"/>
<path d="M6805 2846 c-79 -19 -121 -42 -178 -99 -61 -60 -88 -108 -107 -190
-17 -71 -3 -138 36 -177 21 -21 34 -25 85 -25 59 0 63 2 95 39 22 25 34 50 34
69 0 132 168 177 224 60 9 -19 16 -45 16 -60 0 -41 36 -90 77 -104 47 -15 109
-6 137 21 40 37 51 91 36 168 -7 37 -21 83 -32 103 -50 97 -155 176 -262 197
-70 14 -94 14 -161 -2z"/>
</g>
</svg>
