<?xml version="1.0" standalone="no"?>
<!DOCTYPE svg PUBLIC "-//W3C//DTD SVG 20010904//EN"
 "http://www.w3.org/TR/2001/REC-SVG-20010904/DTD/svg10.dtd">
<svg version="1.0" xmlns="http://www.w3.org/2000/svg"
 width="900.000000pt" height="900.000000pt" viewBox="0 0 900.000000 900.000000"
 preserveAspectRatio="xMidYMid meet">
<metadata>
Created by potrace 1.10, written by Peter Selinger 2001-2011
</metadata>
<g transform="translate(0.000000,900.000000) scale(0.100000,-0.100000)"
fill="currentColor" stroke="none">
<path d="M4213 8988 c1 -8 -20 -15 -63 -21 -151 -18 -400 -76 -488 -113 -18
-8 -37 -14 -43 -14 -6 0 -25 -6 -42 -14 -18 -7 -52 -21 -77 -31 -59 -23 -297
-141 -335 -165 -16 -11 -37 -23 -45 -27 -24 -12 -140 -92 -240 -167 -187 -141
-469 -444 -582 -628 -24 -38 -51 -81 -60 -96 -57 -92 -144 -269 -192 -392 -10
-25 -24 -60 -32 -78 -8 -18 -14 -39 -14 -47 0 -8 -6 -29 -14 -47 -24 -56 -64
-223 -91 -383 -22 -133 -36 -438 -35 -804 1 -178 -3 -328 -7 -332 -5 -5 -139
-10 -298 -11 -323 -3 -334 -5 -392 -71 -20 -23 -35 -55 -42 -89 -16 -75 -9
-4791 6 -4864 37 -172 144 -339 293 -458 44 -35 202 -111 255 -122 52 -11
5578 -11 5630 0 54 12 211 88 255 123 190 153 277 314 300 555 8 90 10 736 8
2448 -3 2567 2 2360 -64 2422 -54 50 -69 52 -378 55 -160 2 -294 7 -299 12 -5
5 -8 149 -7 321 1 355 -15 715 -36 808 -8 35 -14 75 -14 89 0 15 -6 49 -14 77
-15 53 -31 116 -46 176 -8 33 -15 55 -45 140 -30 81 -90 221 -130 301 -46 93
-58 113 -155 270 -117 190 -397 488 -600 640 -112 83 -207 149 -215 149 -2 0
-23 13 -47 28 -76 51 -422 212 -454 212 -7 0 -28 6 -46 14 -88 37 -351 99
-483 113 -48 5 -69 12 -67 21 1 9 -59 12 -278 12 -216 0 -279 -3 -277 -12z
m577 -1152 c155 -40 215 -60 307 -102 29 -13 62 -29 75 -34 27 -12 31 -14 158
-97 208 -135 400 -357 509 -588 55 -116 77 -175 90 -236 4 -19 10 -40 13 -45
4 -5 16 -65 27 -134 20 -116 21 -155 19 -550 l-3 -425 -1495 0 -1495 0 -3 430
c-2 358 0 445 13 520 26 148 57 263 94 350 43 100 154 301 181 325 3 3 29 35
59 72 75 96 200 209 311 281 126 82 131 85 158 97 13 5 46 21 75 34 88 40 132
55 287 97 80 21 171 28 365 25 136 -3 208 -8 255 -20z m-90 -3751 c162 -61
250 -115 328 -199 179 -197 249 -445 192 -683 -38 -155 -99 -264 -212 -374
-66 -63 -68 -67 -68 -115 0 -27 7 -101 15 -164 14 -109 25 -211 59 -520 8 -74
20 -176 26 -226 13 -122 13 -155 -5 -195 -21 -49 -45 -74 -92 -98 -41 -20 -55
-21 -453 -21 -398 0 -412 1 -453 21 -47 24 -71 49 -92 98 -17 39 -19 77 -5
186 5 44 16 145 25 225 33 301 46 418 60 530 8 63 15 137 15 164 0 48 -2 52
-67 116 -302 293 -310 739 -21 1055 92 101 262 193 398 216 78 13 300 3 350
-16z"/>
</g>
</svg>
