<?xml version="1.0" standalone="no"?>
<!DOCTYPE svg PUBLIC "-//W3C//DTD SVG 20010904//EN"
 "http://www.w3.org/TR/2001/REC-SVG-20010904/DTD/svg10.dtd">
<svg version="1.0" xmlns="http://www.w3.org/2000/svg"
 width="900.000000pt" height="900.000000pt" viewBox="0 0 900.000000 900.000000"
 preserveAspectRatio="xMidYMid meet">
<metadata>
Created by potrace 1.10, written by Peter Selinger 2001-2011
</metadata>
<g transform="translate(0.000000,900.000000) scale(0.100000,-0.100000)"
fill="currentColor" stroke="none">
<path d="M1287 8986 c-3 -8 -27 -18 -54 -22 -46 -7 -176 -55 -246 -90 -73 -37
-157 -102 -233 -180 -146 -149 -219 -285 -268 -500 -15 -65 -16 -347 -16
-3130 0 -2010 4 -3073 11 -3099 5 -22 14 -60 18 -85 18 -87 70 -208 131 -299
57 -85 244 -271 273 -271 4 0 23 -12 44 -26 21 -14 47 -30 58 -35 11 -5 27
-13 35 -19 24 -16 221 -130 225 -130 2 0 71 -40 155 -90 84 -49 153 -90 155
-90 3 0 199 -113 225 -130 8 -6 22 -13 30 -17 17 -8 256 -147 280 -163 8 -6
24 -14 36 -19 19 -8 136 -76 174 -101 8 -6 22 -13 30 -17 16 -8 256 -147 280
-163 8 -6 22 -13 30 -17 8 -4 47 -25 85 -48 39 -22 77 -44 85 -48 8 -4 38 -21
65 -38 59 -36 196 -102 245 -119 165 -56 457 -55 615 3 142 51 275 133 374
230 155 151 227 285 282 527 8 34 14 160 17 335 3 198 7 282 15 287 7 4 357 8
778 8 822 0 793 -2 949 50 149 50 348 194 448 326 38 50 116 182 124 209 4 11
16 45 28 75 52 136 55 178 55 835 0 703 2 683 -86 779 -74 81 -122 101 -239
101 -79 0 -102 -4 -138 -23 -82 -44 -133 -101 -165 -187 -8 -20 -13 -233 -17
-650 -5 -619 -5 -620 -28 -669 -12 -28 -34 -64 -47 -82 -31 -40 -117 -97 -172
-112 -31 -9 -228 -13 -755 -13 -392 0 -721 0 -730 1 -17 0 -18 121 -21 2218
-2 1756 -6 2227 -16 2267 -34 136 -47 175 -78 240 -43 88 -47 96 -107 175 -85
112 -174 185 -362 295 -71 41 -136 80 -144 85 -8 6 -22 13 -30 17 -8 4 -70 40
-138 80 -68 40 -125 73 -127 73 -4 0 -200 114 -225 130 -8 6 -22 13 -30 17 -8
4 -69 39 -135 78 -66 39 -127 74 -135 78 -8 4 -24 13 -35 20 -11 7 -52 30 -90
52 -39 22 -79 45 -90 52 -11 7 -27 16 -35 20 -8 4 -58 32 -110 63 -52 31 -102
59 -110 63 -8 4 -28 16 -45 27 -16 11 -37 23 -45 27 -16 7 -154 86 -180 103
-8 5 -34 19 -58 32 -49 25 -66 43 -57 58 9 15 3755 14 3844 -1 36 -6 83 -20
105 -31 54 -28 129 -106 157 -164 l23 -49 6 -700 c4 -466 9 -710 17 -731 37
-106 118 -178 236 -209 65 -17 69 -17 135 0 132 36 212 114 246 245 16 59 17
125 13 740 -3 564 -7 688 -20 752 -9 42 -21 86 -26 97 -6 11 -11 27 -11 35 0
9 -14 46 -32 83 -82 178 -231 345 -391 441 -48 28 -94 52 -102 52 -7 0 -16 4
-19 9 -7 11 -95 40 -166 55 -33 7 -54 16 -53 24 2 9 -509 12 -2356 12 -2036 0
-2360 -2 -2364 -14z"/>
<path d="M7210 6424 c-129 -35 -210 -121 -240 -256 -15 -65 -3 -142 31 -210
10 -20 100 -118 200 -217 120 -121 179 -186 175 -196 -5 -13 -154 -15 -1193
-15 -1251 0 -1226 1 -1309 -43 -37 -20 -107 -93 -127 -132 -31 -62 -42 -142
-28 -208 18 -88 80 -179 146 -215 91 -49 16 -46 1313 -49 666 -2 1212 -7 1212
-11 0 -4 -77 -84 -170 -177 -94 -94 -186 -192 -204 -220 -93 -141 -60 -326 76
-429 67 -50 126 -68 205 -63 77 5 125 21 175 59 44 34 926 915 973 973 19 23
35 47 35 52 0 5 7 24 16 42 12 24 15 52 12 109 -6 135 -2 130 -526 655 -257
257 -489 483 -517 502 -45 31 -146 66 -185 64 -8 0 -40 -7 -70 -15z"/>
</g>
</svg>
