<?xml version="1.0" standalone="no"?>
<!DOCTYPE svg PUBLIC "-//W3C//DTD SVG 20010904//EN"
 "http://www.w3.org/TR/2001/REC-SVG-20010904/DTD/svg10.dtd">
<svg version="1.0" xmlns="http://www.w3.org/2000/svg"
 width="900.000000pt" height="900.000000pt" viewBox="0 0 900.000000 900.000000"
 preserveAspectRatio="xMidYMid meet">
<metadata>
Created by potrace 1.10, written by Peter Selinger 2001-2011
</metadata>
<g transform="translate(0.000000,900.000000) scale(0.100000,-0.100000)"
fill="currentColor" stroke="none">
<path d="M4358 8130 c-72 -20 -154 -58 -197 -91 -86 -67 -160 -161 -190 -239
-48 -130 -46 -63 -46 -1445 0 -1423 -3 -1356 64 -1494 43 -91 149 -202 231
-245 176 -90 364 -90 540 0 81 42 189 157 232 246 66 137 63 72 63 1493 0
1181 -1 1295 -17 1350 -23 83 -43 134 -56 147 -7 7 -12 16 -12 20 0 18 -65 95
-117 138 -142 120 -329 165 -495 120z"/>
<path d="M6552 7224 c-86 -19 -185 -69 -250 -128 -55 -50 -132 -156 -132 -181
0 -8 -4 -16 -9 -19 -19 -12 -53 -189 -47 -247 17 -169 61 -255 218 -424 322
-346 525 -733 632 -1205 44 -195 50 -261 50 -530 0 -269 -6 -335 -50 -530 -34
-150 -107 -386 -125 -405 -5 -5 -9 -16 -9 -24 0 -20 -133 -286 -175 -349 -19
-30 -35 -55 -35 -57 0 -12 -133 -192 -195 -265 -339 -399 -786 -683 -1280
-813 -258 -68 -362 -81 -660 -81 -264 0 -333 7 -525 50 -150 34 -386 107 -404
125 -6 5 -16 9 -24 9 -30 0 -283 131 -407 210 -210 135 -407 308 -572 503 -65
77 -193 251 -193 262 0 2 -14 24 -30 49 -37 55 -130 234 -170 329 -73 171
-134 387 -176 622 -26 142 -26 587 -1 725 40 217 54 276 111 450 111 339 299
652 560 931 131 140 176 222 196 361 29 193 -44 383 -195 508 -51 43 -89 65
-179 104 -78 34 -279 31 -376 -6 -135 -51 -272 -181 -509 -482 -79 -99 -199
-275 -241 -352 -12 -21 -30 -54 -41 -73 -59 -101 -191 -371 -210 -431 -4 -14
-17 -50 -29 -80 -152 -390 -235 -845 -235 -1290 0 -384 48 -696 171 -1110 7
-25 27 -83 45 -130 17 -47 38 -103 46 -124 28 -78 143 -316 198 -411 19 -33
38 -67 41 -75 4 -8 27 -46 52 -85 24 -38 51 -81 60 -95 22 -35 213 -289 248
-330 199 -230 409 -426 625 -583 96 -69 163 -116 205 -142 66 -40 134 -81 164
-98 34 -19 287 -145 328 -163 58 -25 96 -41 142 -59 25 -9 56 -22 70 -27 123
-48 352 -113 540 -152 404 -84 860 -95 1270 -30 262 41 491 99 698 178 23 9
59 22 80 30 130 49 330 143 447 211 33 19 69 39 80 44 11 5 37 21 58 35 21 14
40 26 42 26 6 0 192 127 205 140 3 3 43 34 90 70 85 65 95 73 205 171 101 89
263 257 347 359 101 124 228 297 283 386 91 149 100 164 173 309 71 142 122
250 133 285 4 14 17 50 29 80 146 374 240 880 240 1290 0 406 -94 911 -240
1290 -12 30 -26 69 -31 87 -5 18 -14 35 -19 38 -6 4 -10 13 -10 21 0 16 -140
302 -178 364 -12 19 -26 44 -31 55 -27 57 -161 254 -251 369 -125 158 -153
192 -239 281 -106 112 -159 154 -236 190 -114 53 -237 67 -363 39z"/>
</g>
</svg>
