<?xml version="1.0" standalone="no"?>
<!DOCTYPE svg PUBLIC "-//W3C//DTD SVG 20010904//EN"
 "http://www.w3.org/TR/2001/REC-SVG-20010904/DTD/svg10.dtd">
<svg version="1.0" xmlns="http://www.w3.org/2000/svg"
 width="900.000000pt" height="900.000000pt" viewBox="0 0 900.000000 900.000000"
 preserveAspectRatio="xMidYMid meet">
<metadata>
Created by potrace 1.10, written by Peter Selinger 2001-2011
</metadata>
<g transform="translate(0.000000,900.000000) scale(0.100000,-0.100000)"
fill="currentColor" stroke="none">
<path d="M3690 8481 c-247 -16 -464 -56 -825 -151 -220 -59 -655 -243 -845
-358 -19 -12 -44 -26 -55 -32 -11 -6 -33 -19 -50 -30 -16 -11 -37 -23 -45 -27
-8 -4 -44 -27 -80 -52 -36 -24 -91 -62 -122 -82 -57 -39 -187 -141 -288 -227
-348 -297 -669 -693 -896 -1107 -63 -114 -194 -388 -194 -404 0 -5 -11 -34
-25 -64 -23 -54 -77 -210 -111 -327 -9 -30 -23 -73 -30 -95 -8 -23 -14 -49
-14 -59 0 -11 -6 -42 -14 -70 -29 -100 -67 -327 -86 -501 -13 -129 -13 -680 0
-810 6 -55 17 -137 25 -181 8 -45 15 -92 15 -105 0 -12 7 -52 15 -88 8 -36 22
-97 31 -136 30 -136 125 -441 166 -533 15 -35 28 -68 28 -73 0 -10 61 -142
124 -269 70 -142 125 -239 214 -375 245 -376 507 -666 878 -970 62 -51 246
-182 324 -232 34 -21 73 -46 88 -55 15 -10 34 -21 42 -25 8 -4 47 -25 85 -48
69 -40 226 -119 335 -167 282 -126 636 -232 940 -282 283 -46 328 -50 670 -49
340 0 424 6 670 49 225 39 496 107 598 150 18 8 39 14 47 14 8 0 29 6 47 14
18 8 85 35 148 61 384 158 728 363 1050 629 101 83 402 381 487 482 108 128
363 479 363 500 0 3 12 23 27 47 60 94 243 454 243 477 0 7 6 24 14 38 8 15
29 65 46 112 18 47 38 101 45 120 79 208 183 683 198 900 l2 35 75 16 c41 9
127 24 190 33 514 73 587 94 666 195 24 31 49 73 55 94 5 21 16 37 24 37 12 0
15 20 15 105 0 86 -3 105 -15 105 -8 0 -18 12 -21 28 -16 64 -73 124 -629 666
-49 48 -256 251 -460 450 -760 744 -726 713 -806 740 -80 27 -113 29 -180 10
-126 -34 -188 -93 -273 -257 -45 -86 -134 -254 -192 -362 -18 -33 -44 -82 -58
-110 -14 -27 -47 -90 -74 -140 -105 -197 -152 -284 -194 -365 -25 -47 -61
-115 -80 -150 -45 -83 -115 -215 -165 -310 -41 -77 -112 -212 -191 -360 -25
-47 -61 -114 -79 -150 -19 -36 -41 -85 -49 -110 -25 -82 -14 -204 27 -282 45
-88 145 -165 242 -188 60 -14 99 -11 317 25 156 26 275 44 320 49 25 3 53 8
62 11 23 9 29 -18 14 -67 -91 -292 -90 -288 -182 -483 -193 -407 -504 -763
-904 -1037 -36 -24 -72 -47 -80 -51 -8 -4 -28 -16 -45 -27 -81 -52 -420 -210
-452 -210 -7 0 -27 -6 -45 -14 -60 -25 -222 -67 -343 -90 -162 -29 -294 -41
-475 -41 -245 0 -417 21 -650 81 -151 39 -199 55 -345 113 -195 78 -435 219
-625 370 -295 233 -569 572 -721 891 -71 149 -99 219 -139 340 -45 140 -49
158 -90 360 -18 88 -40 336 -40 450 0 109 21 347 40 460 24 139 80 339 133
470 144 363 319 632 587 901 160 161 246 233 401 336 199 133 357 212 617 307
74 27 226 67 342 89 236 47 551 60 769 32 231 -28 464 -84 631 -149 85 -34
149 -60 195 -80 120 -53 154 -60 295 -60 145 0 194 11 317 71 93 46 255 197
280 263 3 8 11 21 17 29 13 16 31 64 57 151 36 122 23 333 -27 433 -8 16 -14
33 -14 39 0 43 -168 244 -235 281 -74 40 -237 117 -249 117 -8 0 -17 4 -21 10
-3 5 -20 14 -38 19 -18 5 -57 19 -87 31 -30 11 -82 30 -115 40 -163 54 -250
80 -261 80 -6 0 -34 6 -60 14 -108 31 -287 65 -484 91 -131 18 -600 27 -780
16z"/>
</g>
</svg>
