<?xml version="1.0" standalone="no"?>
<!DOCTYPE svg PUBLIC "-//W3C//DTD SVG 20010904//EN"
 "http://www.w3.org/TR/2001/REC-SVG-20010904/DTD/svg10.dtd">
<svg version="1.0" xmlns="http://www.w3.org/2000/svg"
 width="900.000000pt" height="900.000000pt" viewBox="0 0 900.000000 900.000000"
 preserveAspectRatio="xMidYMid meet">
<metadata>
Created by potrace 1.10, written by Peter Selinger 2001-2011
</metadata>
<g transform="translate(0.000000,900.000000) scale(0.100000,-0.100000)"
fill="currentColor" stroke="none">
<path d="M4280 7889 c-151 -8 -325 -30 -445 -55 -174 -38 -219 -49 -355 -92
-142 -44 -240 -80 -350 -129 -30 -14 -75 -34 -100 -45 -69 -30 -172 -85 -275
-146 -118 -70 -299 -195 -403 -279 -175 -140 -509 -488 -601 -626 -9 -14 -43
-64 -77 -113 -259 -379 -439 -811 -528 -1264 -81 -414 -81 -871 1 -1300 26
-137 68 -297 111 -425 233 -685 624 -1219 1225 -1676 279 -212 737 -436 1076
-526 302 -80 469 -107 753 -122 197 -11 485 0 633 23 50 8 113 18 140 21 28 4
66 10 85 15 19 5 71 18 115 29 412 100 809 277 1135 506 36 25 81 56 100 69
64 43 243 198 353 305 109 106 287 307 346 392 194 274 315 489 426 754 47
112 130 363 150 453 8 37 21 99 30 137 55 249 82 617 65 877 -31 493 -134 888
-341 1313 -209 429 -515 819 -882 1123 -70 58 -138 113 -151 121 -205 140
-402 262 -471 292 -11 5 -27 13 -35 18 -70 43 -348 154 -510 204 -290 89 -517
129 -830 147 -190 11 -180 11 -390 -1z m650 -174 c650 -99 1179 -338 1675
-754 222 -187 489 -491 615 -701 19 -30 39 -62 46 -70 26 -33 154 -281 209
-405 49 -113 118 -300 136 -370 112 -438 123 -518 123 -920 0 -375 -16 -515
-91 -805 -14 -52 -29 -108 -33 -125 -17 -71 -85 -253 -143 -385 -201 -458
-525 -887 -901 -1195 -27 -22 -54 -44 -60 -50 -82 -75 -407 -279 -566 -357
-127 -61 -310 -140 -355 -152 -11 -3 -47 -14 -80 -26 -146 -52 -340 -98 -560
-132 -193 -30 -694 -33 -880 -5 -223 33 -442 84 -590 137 -33 12 -69 23 -80
26 -11 3 -54 19 -95 36 -454 184 -804 416 -1133 752 -276 282 -485 593 -665
986 -45 101 -119 305 -132 366 -5 22 -13 51 -18 65 -5 13 -17 56 -26 94 -71
319 -81 409 -81 770 0 248 4 334 18 430 71 467 203 842 437 1236 75 126 219
330 300 423 82 96 114 130 200 216 269 269 614 504 970 663 134 59 259 107
345 132 33 10 69 21 81 25 25 10 162 43 259 64 83 17 285 45 370 50 146 9 603
-3 705 -19z"/>
<path d="M3603 6177 c-47 -32 -69 -66 -82 -125 -16 -75 -16 -3049 0 -3124 21
-98 83 -148 181 -148 78 1 132 33 165 100 l23 45 0 1563 c0 1550 0 1563 -20
1608 -12 26 -37 56 -62 74 -36 26 -49 30 -107 29 -51 0 -73 -5 -98 -22z"/>
<path d="M5171 6169 c-25 -17 -50 -48 -62 -72 -18 -41 -19 -91 -19 -1607 l0
-1566 23 -44 c33 -67 87 -99 165 -100 50 0 71 5 95 22 53 37 75 70 86 127 16
78 15 3050 0 3123 -22 100 -80 148 -183 148 -54 0 -69 -4 -105 -31z"/>
</g>
</svg>
